<svg width="60" height="57" viewBox="0 0 60 57" fill="none" xmlns="http://www.w3.org/2000/svg">
<path d="M50.778 8.80391C45.9077 3.91258 39.4188 0.987296 32.543 0.583263C25.6672 0.17923 18.883 2.32457 13.4779 6.6121H10.1286C9.80564 6.61195 9.48599 6.67766 9.18905 6.80528C8.89211 6.93289 8.62406 7.11973 8.40117 7.35449C4.80519 11.1537 2.22668 15.8064 0.906497 20.8779C0.816341 21.2307 0.807855 21.5996 0.881689 21.9562C0.955524 22.3128 1.10972 22.6477 1.33244 22.9352C1.55516 23.2227 1.84049 23.4551 2.16654 23.6147C2.49259 23.7742 2.8507 23.8566 3.21338 23.8556C2.92898 25.4761 2.78674 27.1185 2.78829 28.764V28.8972H2.39027C2.06101 28.8954 1.73498 28.9623 1.43282 29.0937C1.13066 29.2251 0.858969 29.4181 0.634964 29.6604C0.410959 29.9028 0.239524 30.1893 0.131524 30.5016C0.0235245 30.814 -0.0186851 31.1456 0.0075705 31.4752C0.663826 39.0839 4.08988 46.1826 9.63042 51.4135C10.0732 51.8339 10.6592 52.0683 11.2685 52.0689H15.0186C19.2423 54.9704 24.1743 56.6594 29.2831 56.9537C34.392 57.248 39.4839 56.1365 44.0103 53.739C48.5366 51.3415 52.3257 47.7489 54.9692 43.3483C57.6128 38.9478 59.0105 33.9062 59.0118 28.7667C59.0181 25.0583 58.2938 21.3853 56.8806 17.9592C55.4675 14.5331 53.3935 11.4216 50.778 8.80391ZM2.88847 21.7073C2.85208 21.6612 2.827 21.6071 2.81524 21.5495C2.80348 21.4919 2.80538 21.4323 2.82078 21.3755C4.05598 16.6297 6.46974 12.2762 9.8362 8.72233C9.87387 8.68255 9.91924 8.65093 9.96953 8.62942C10.0198 8.6079 10.074 8.59695 10.1286 8.59723H25.8517C27.1583 8.59782 28.4354 8.98735 29.5217 9.71661C30.608 10.4459 31.4546 11.4821 31.9547 12.6945C32.4548 13.9068 32.5859 15.2408 32.3315 16.528C32.077 17.8151 31.4484 18.9976 30.5251 19.9261C29.9208 20.5309 29.2066 21.0137 28.4212 21.3483C27.6084 21.694 26.7345 21.8716 25.8517 21.8704H3.21338C3.15026 21.8708 3.08792 21.8563 3.03146 21.8279C2.975 21.7996 2.926 21.7582 2.88847 21.7073ZM11.2821 50.0838C11.1808 50.0807 11.0844 50.04 11.0113 49.9695C8.46947 47.5724 6.3767 44.7364 4.83253 41.5966C4.0502 40.0082 3.41572 38.3505 2.93721 36.6447C2.45086 34.8994 2.12815 33.1123 1.9733 31.3066C1.96856 31.2537 1.97504 31.2005 1.99231 31.1503C2.00958 31.1002 2.03724 31.0542 2.07348 31.0156C2.11198 30.9734 2.15885 30.9397 2.21108 30.9168C2.2633 30.8938 2.31973 30.8821 2.37673 30.8824H35.3798C37.9158 30.8824 40.3479 31.8942 42.1411 33.6951C43.9343 35.4961 44.9417 37.9388 44.9417 40.4858C44.9417 43.0328 43.9343 45.4754 42.1411 47.2764C40.3479 49.0774 37.9158 50.0892 35.3798 50.0892L11.2821 50.0838Z" fill="#2C1052"/>
<path d="M32.4585 15.2352C32.4606 16.1219 32.2837 16.9998 31.9386 17.8159C31.4338 19.018 30.587 20.0437 29.5042 20.7645C28.4214 21.4853 27.1509 21.8691 25.8519 21.8677H3.21358C3.15068 21.8685 3.08849 21.8543 3.03205 21.8265C2.9756 21.7986 2.92648 21.7578 2.88866 21.7073C2.85228 21.6612 2.8272 21.6071 2.81544 21.5495C2.80368 21.4919 2.80558 21.4323 2.82097 21.3755C4.05618 16.6297 6.46994 12.2762 9.83639 8.72234C9.87406 8.68256 9.91944 8.65094 9.96973 8.62943C10.02 8.60792 10.0742 8.59697 10.1288 8.59725H25.8519C26.7197 8.59653 27.5791 8.76767 28.381 9.10087C29.1828 9.43407 29.9114 9.92279 30.5251 10.5391C31.1387 11.1554 31.6253 11.8871 31.957 12.6924C32.2888 13.4978 32.4592 14.3609 32.4585 15.2325V15.2352Z" fill="#E69330"/>
<path d="M44.9539 40.4844C44.9546 41.7456 44.7078 42.9945 44.2276 44.1598C43.7473 45.3251 43.0431 46.3839 42.1552 47.2757C41.2673 48.1675 40.2131 48.8747 39.0528 49.357C37.8925 49.8393 36.649 50.0872 35.3933 50.0865H11.2685C11.1673 50.0834 11.0708 50.0427 10.9977 49.9723C8.46046 47.5731 6.37232 44.7363 4.83248 41.5966C4.05015 40.0082 3.41567 38.3505 2.93715 36.6447C2.45081 34.8994 2.1281 33.1123 1.97324 31.3066C1.96851 31.2537 1.97499 31.2005 1.99226 31.1503C2.00953 31.1002 2.03719 31.0542 2.07343 31.0156C2.11193 30.9734 2.1588 30.9397 2.21103 30.9168C2.26325 30.8938 2.31968 30.8821 2.37668 30.8824H35.3797C36.6366 30.8799 37.8816 31.1264 39.0434 31.6079C40.2053 32.0894 41.2611 32.7964 42.1504 33.6883C43.0398 34.5803 43.7452 35.6397 44.2263 36.8059C44.7073 37.9721 44.9546 39.2221 44.9539 40.4844Z" fill="#E69330"/>
</svg>
